<!-- Generated by IcoMoon.io -->
<svg version="1.1" xmlns="http://www.w3.org/2000/svg" width="33" height="24" viewBox="0 0 33 24">
<title>ferry-icon</title>
<path fill="#99c9df" d="M1.868 6.070l17.040 0.002v9.787h-17.040zM22.435 10.387h2.382c0.735 0.003 1.232 0.443 1.704 1.357 0.382 0.767 0.573 1.761 0.615 2.472h-4.701zM0.34 16.662v3.462c0 0.201 0.082 0.398 0.225 0.54 0.141 0.143 0.338 0.223 0.54 0.223h4.060c0.063-2.061 1.741-3.711 3.817-3.713 2.077 0.002 3.754 1.655 3.817 3.713h7.244c0.059 0.010 0.116 0.035 0.177 0.035h1.798c0.045-2.077 1.732-3.746 3.82-3.749 2.091 0.002 3.779 1.672 3.824 3.749h0.736c0.283 0 0.562-0.115 0.763-0.316s0.315-0.478 0.315-0.761v-3.329c-0.025-0.641-0.311-0.971-0.54-1.252-0.497-0.549-1.198-1.019-1.648-1.315-0.071-0.945-0.313-2.085-0.827-3.152-0.593-1.266-1.804-2.572-3.643-2.57h-4.381v-2.921c0-0.202-0.083-0.398-0.225-0.541-0.142-0.14-0.34-0.222-0.542-0.222h-18.565c-0.2 0-0.399 0.079-0.541 0.222s-0.224 0.34-0.224 0.541v11.316c0 0.007 0.004 0.014 0.004 0.022 0 0.005-0.004 0.012-0.004 0.017z"></path>
<path fill="#99c9df" d="M24.923 21.004c0-0.029 0.014-0.052 0.017-0.082 0.045-0.466 0.424-0.834 0.899-0.834s0.854 0.368 0.899 0.834c0.003 0.029 0.017 0.053 0.017 0.082-0.002 0.504-0.411 0.914-0.916 0.914s-0.914-0.41-0.916-0.914zM28.697 21.004c0-0.028-0.008-0.053-0.008-0.082-0.045-1.539-1.299-2.776-2.85-2.778-1.553 0.003-2.805 1.239-2.85 2.778 0 0.028-0.008 0.054-0.008 0.082 0 1.578 1.279 2.855 2.857 2.859 1.578-0.003 2.858-1.281 2.858-2.859z"></path>
<path fill="#99c9df" d="M8.064 21.004c0-0.041 0.019-0.077 0.025-0.117 0.061-0.448 0.429-0.799 0.891-0.799s0.832 0.351 0.893 0.799c0.004 0.040 0.024 0.076 0.024 0.117-0.002 0.504-0.413 0.914-0.916 0.914-0.506 0-0.914-0.41-0.916-0.914zM11.839 21.004c0-0.040-0.010-0.077-0.013-0.117-0.064-1.523-1.304-2.74-2.846-2.743-1.538 0.003-2.784 1.22-2.845 2.743-0.002 0.040-0.012 0.077-0.012 0.117 0 1.578 1.279 2.855 2.857 2.859 1.578-0.003 2.858-1.281 2.858-2.859z"></path>
<path fill="#0177af" d="M14.118 9.852c0.087 0.13 0.174 0.261 0.261 0.391-0.235-0.353-0.598-0.684-1.090-0.967-1.873-1.082-4.911-1.082-6.772 0-0.477 0.277-0.831 0.598-1.062 0.942 0.087-0.13 0.175-0.26 0.263-0.39 0.217-0.322 0.551-0.625 0.999-0.886 1.751-1.018 4.612-1.018 6.375 0 0.463 0.267 0.804 0.578 1.026 0.91z"></path>
<path fill="#0177af" d="M13.778 9.989l0.261 0.391c-0.235-0.353-0.598-0.684-1.090-0.967-1.399-0.809-3.449-1.013-5.172-0.613l0.106-0.298c1.622-0.376 3.552-0.184 4.869 0.577 0.463 0.267 0.805 0.578 1.026 0.91z"></path>
<path fill="#0177af" d="M7.883 8.502l-0.107 0.298c-0.583 0.135-1.129 0.34-1.6 0.613-0.166 0.096-0.316 0.198-0.452 0.304l0.227-0.353c0.128-0.1 0.27-0.196 0.426-0.286 0.443-0.258 0.957-0.45 1.506-0.577z"></path>
<path fill="#0177af" d="M14.086 8.979c-0.002 0.653-0.004 1.306-0.005 1.96 0.002-0.673-0.442-1.347-1.329-1.859-1.763-1.018-4.623-1.018-6.375 0-0.87 0.505-1.306 1.169-1.308 1.833 0.002-0.653 0.004-1.307 0.006-1.96 0.002-0.664 0.437-1.327 1.307-1.833 1.751-1.018 4.612-1.018 6.375 0 0.887 0.512 1.33 1.186 1.329 1.859z"></path>
<path fill="#0177af" d="M14.086 8.979l-0.005 1.96c0.002-0.673-0.442-1.347-1.329-1.859-0.202-0.117-0.42-0.221-0.648-0.311l0.005-1.96c0.228 0.090 0.446 0.194 0.648 0.311 0.887 0.512 1.33 1.186 1.329 1.859z"></path>
<path fill="#0177af" d="M7.367 6.686l-0.006 1.96c-0.353 0.115-0.685 0.259-0.985 0.433-0.018 0.010-0.036 0.021-0.055 0.032l0.006-1.96c0.018-0.011 0.036-0.021 0.054-0.032 0.3-0.174 0.632-0.318 0.985-0.433z"></path>
<path fill="#0177af" d="M14.041 9.536c-0.088 0.13-0.175 0.26-0.263 0.39 0.632-0.939 0.291-2.049-1.020-2.807-1.763-1.018-4.624-1.018-6.375 0-1.292 0.751-1.626 1.849-1.005 2.782-0.087-0.13-0.174-0.261-0.261-0.391-0.66-0.991-0.305-2.157 1.067-2.954 1.862-1.082 4.899-1.082 6.772 0 1.393 0.804 1.756 1.984 1.084 2.98z"></path>
<path fill="#0177af" d="M13.095 6.638l-0.207 0.559c-0.043-0.026-0.086-0.052-0.13-0.078-0.047-0.026-0.094-0.053-0.142-0.078l0.19-0.569c0.051 0.027 0.102 0.055 0.151 0.083 0.047 0.027 0.093 0.056 0.138 0.083z"></path>
<path fill="#0177af" d="M6.327 6.475l0.189 0.569c-0.045 0.024-0.090 0.049-0.134 0.074-0.065 0.038-0.127 0.076-0.187 0.116l-0.21-0.557c0.064-0.042 0.13-0.082 0.199-0.123 0.047-0.027 0.095-0.054 0.143-0.080z"></path>
<path fill="#0177af" d="M14.296 12.004c-0.088 0.13-0.175 0.26-0.263 0.39-0.231 0.343-0.585 0.665-1.062 0.942-1.861 1.081-4.899 1.081-6.772 0-0.492-0.284-0.855-0.615-1.090-0.968-0.087-0.13-0.174-0.261-0.261-0.391 0.249 0.374 0.633 0.724 1.154 1.025 1.983 1.144 5.198 1.145 7.168 0 0.505-0.294 0.88-0.634 1.125-0.998z"></path>
<path fill="#0177af" d="M13.65 12.68l-0.227 0.352c-0.136 0.106-0.287 0.208-0.453 0.304-0.47 0.273-1.016 0.477-1.599 0.613l0.106-0.298c0.617-0.143 1.195-0.36 1.693-0.649 0.176-0.102 0.335-0.21 0.479-0.322z"></path>
<path fill="#0177af" d="M11.478 13.65l-0.106 0.298c-1.723 0.4-3.773 0.195-5.173-0.613-0.492-0.284-0.855-0.615-1.090-0.967l-0.261-0.391c0.249 0.374 0.633 0.723 1.154 1.024 1.482 0.855 3.651 1.071 5.475 0.649z"></path>
<path fill="#0177af" d="M14.487 12.047c-0.087 0.13-0.175 0.26-0.262 0.39-0.241 0.358-0.611 0.694-1.108 0.982-1.94 1.128-5.109 1.128-7.062 0-0.513-0.296-0.892-0.641-1.136-1.009-0.087-0.13-0.174-0.261-0.261-0.391 0.258 0.389 0.659 0.753 1.2 1.066 2.064 1.191 5.409 1.191 7.459-0 0.526-0.305 0.916-0.659 1.17-1.038z"></path>
<path fill="#0177af" d="M13.815 12.751l-0.227 0.352c-0.142 0.111-0.299 0.217-0.472 0.317-0.491 0.285-1.060 0.498-1.668 0.639l0.106-0.298c0.642-0.149 1.243-0.374 1.762-0.675 0.182-0.106 0.349-0.218 0.499-0.335z"></path>
<path fill="#0177af" d="M11.554 13.761l-0.106 0.298c-1.798 0.417-3.935 0.204-5.394-0.639-0.513-0.296-0.892-0.641-1.136-1.009l-0.261-0.391c0.259 0.389 0.659 0.753 1.201 1.066 1.542 0.89 3.799 1.115 5.697 0.675z"></path>
<path fill="#0177af" d="M14.647 8.981c-0.002 0.653-0.004 1.306-0.005 1.959-0.002 0.747-0.492 1.493-1.471 2.062-1.97 1.145-5.185 1.144-7.168 0-0.998-0.577-1.497-1.334-1.495-2.091 0.002-0.653 0.004-1.306 0.005-1.959-0.002 0.756 0.497 1.514 1.495 2.090 1.983 1.145 5.198 1.145 7.169 0 0.979-0.569 1.469-1.315 1.471-2.062z"></path>
<path fill="#0177af" d="M13.238 11.005l-0.006 1.96c-0.020 0.012-0.041 0.025-0.061 0.036-0.337 0.196-0.71 0.358-1.108 0.487l0.006-1.959c0.397-0.129 0.77-0.291 1.107-0.487 0.021-0.012 0.042-0.025 0.062-0.037z"></path>
<path fill="#0177af" d="M6.737 11.391l-0.005 1.96c-0.257-0.102-0.501-0.218-0.729-0.349-0.998-0.576-1.497-1.334-1.495-2.091l0.006-1.959c-0.002 0.756 0.496 1.514 1.494 2.090 0.228 0.132 0.472 0.248 0.729 0.349z"></path>
<path fill="#0177af" d="M14.046 7.522c0.087 0.131 0.174 0.261 0.261 0.391 0.698 1.049 0.322 2.284-1.131 3.128-1.97 1.145-5.185 1.145-7.169-0-1.475-0.852-1.859-2.099-1.148-3.155 0.088-0.13 0.175-0.26 0.262-0.39-0.671 0.997-0.309 2.176 1.085 2.98 1.873 1.081 4.911 1.082 6.772 0 1.372-0.798 1.727-1.965 1.067-2.956z"></path>
<path fill="#0177af" d="M13.178 10.355l0.209 0.557c-0.067 0.044-0.138 0.087-0.21 0.13-0.050 0.029-0.1 0.057-0.151 0.085l-0.189-0.569c0.048-0.026 0.096-0.052 0.143-0.080 0.069-0.040 0.135-0.081 0.198-0.123z"></path>
<path fill="#0177af" d="M6.358 10.561l-0.19 0.569c-0.054-0.029-0.108-0.058-0.16-0.089-0.050-0.028-0.098-0.058-0.146-0.087l0.207-0.559c0.045 0.028 0.090 0.056 0.138 0.082 0.049 0.029 0.099 0.056 0.15 0.084z"></path>
<path fill="#0177af" d="M14.238 7.479c0.087 0.131 0.174 0.261 0.261 0.391 0.727 1.092 0.335 2.377-1.177 3.255-2.050 1.191-5.395 1.191-7.459 0-1.535-0.886-1.934-2.185-1.195-3.283 0.088-0.13 0.175-0.26 0.263-0.39-0.701 1.040-0.322 2.27 1.131 3.109 1.953 1.127 5.122 1.127 7.062 0 1.431-0.832 1.802-2.048 1.114-3.083z"></path>
<path fill="#0177af" d="M13.331 10.434l0.209 0.557c-0.070 0.046-0.143 0.091-0.219 0.135-0.052 0.030-0.104 0.059-0.158 0.087l-0.189-0.568c0.050-0.027 0.1-0.055 0.149-0.083 0.072-0.042 0.141-0.084 0.207-0.128z"></path>
<path fill="#0177af" d="M6.219 10.649l-0.19 0.569c-0.056-0.030-0.112-0.060-0.166-0.092-0.052-0.030-0.103-0.060-0.152-0.091l0.207-0.559c0.047 0.030 0.095 0.058 0.143 0.087 0.052 0.030 0.104 0.059 0.157 0.087z"></path>
<path fill="#0177af" d="M6.207 10.477c1.873 1.081 4.911 1.082 6.772 0s1.851-2.842-0.022-3.923c-1.873-1.082-4.911-1.082-6.772 0s-1.851 2.841 0.022 3.922zM13.102 6.471c1.953 1.128 1.964 2.963 0.023 4.091s-5.109 1.128-7.062 0c-1.953-1.128-1.964-2.963-0.023-4.090 1.941-1.128 5.109-1.128 7.063-0z"></path>
<path fill="#0177af" d="M14.853 8.981c-0.002 0.653-0.004 1.306-0.005 1.96-0.002 0.777-0.512 1.553-1.531 2.145-2.050 1.191-5.395 1.191-7.459 0-1.038-0.6-1.557-1.389-1.555-2.176 0.002-0.653 0.004-1.307 0.005-1.96-0.002 0.787 0.516 1.576 1.555 2.176 2.064 1.191 5.409 1.191 7.459 0 1.019-0.592 1.528-1.368 1.531-2.146z"></path>
<path fill="#0177af" d="M13.386 11.088l-0.006 1.96c-0.021 0.013-0.043 0.026-0.064 0.038-0.351 0.204-0.739 0.373-1.152 0.507l0.005-1.96c0.414-0.134 0.802-0.303 1.152-0.507 0.022-0.013 0.043-0.026 0.064-0.038z"></path>
<path fill="#0177af" d="M6.621 11.49l-0.006 1.959c-0.267-0.105-0.521-0.227-0.758-0.363-1.038-0.599-1.557-1.388-1.555-2.176l0.005-1.96c-0.002 0.787 0.516 1.576 1.555 2.176 0.237 0.137 0.491 0.258 0.758 0.364z"></path>
<path fill="#0177af" d="M13.778 7.177c0.087 0.13 0.174 0.261 0.261 0.391-0.235-0.353-0.598-0.683-1.090-0.967-1.873-1.082-4.911-1.082-6.772 0-0.477 0.277-0.831 0.598-1.062 0.942 0.087-0.13 0.175-0.26 0.263-0.39 0.217-0.322 0.55-0.625 0.999-0.886 1.751-1.018 4.612-1.018 6.375 0 0.463 0.267 0.804 0.578 1.026 0.91z"></path>
<path fill="#0177af" d="M13.778 7.177l0.261 0.391c-0.235-0.353-0.598-0.683-1.090-0.967-1.399-0.808-3.449-1.013-5.172-0.613l0.106-0.298c1.622-0.376 3.552-0.184 4.869 0.577 0.463 0.267 0.805 0.578 1.026 0.91z"></path>
<path fill="#0177af" d="M7.883 5.689l-0.107 0.298c-0.583 0.135-1.129 0.34-1.6 0.613-0.166 0.096-0.316 0.198-0.452 0.304l0.227-0.353c0.128-0.1 0.27-0.196 0.426-0.286 0.443-0.257 0.957-0.45 1.506-0.577z"></path>
<path fill="#0177af" d="M14.086 6.166c-0.002 0.653-0.004 1.307-0.005 1.96 0.002-0.673-0.442-1.347-1.329-1.859-1.763-1.018-4.623-1.018-6.375 0-0.87 0.506-1.306 1.169-1.308 1.833 0.002-0.653 0.004-1.306 0.006-1.96 0.002-0.664 0.437-1.327 1.307-1.832 1.751-1.019 4.612-1.019 6.375-0 0.887 0.512 1.33 1.186 1.329 1.859z"></path>
<path fill="#0177af" d="M14.086 6.166l-0.005 1.96c0.002-0.673-0.442-1.347-1.329-1.859-0.202-0.117-0.42-0.221-0.648-0.311l0.005-1.96c0.228 0.090 0.446 0.194 0.648 0.311 0.887 0.512 1.33 1.186 1.329 1.859z"></path>
<path fill="#0177af" d="M7.367 3.874l-0.006 1.96c-0.353 0.114-0.685 0.259-0.985 0.433-0.018 0.011-0.036 0.021-0.055 0.033l0.006-1.96c0.018-0.011 0.036-0.021 0.054-0.032 0.3-0.174 0.632-0.318 0.985-0.433z"></path>
<path fill="#0177af" d="M14.041 6.723c-0.088 0.13-0.175 0.26-0.263 0.39 0.632-0.939 0.291-2.049-1.020-2.807-1.763-1.018-4.624-1.018-6.375 0-1.292 0.75-1.626 1.849-1.005 2.782-0.087-0.131-0.174-0.261-0.261-0.391-0.66-0.991-0.305-2.158 1.067-2.955 1.862-1.082 4.899-1.082 6.772 0 1.393 0.804 1.756 1.984 1.084 2.98z"></path>
<path fill="#0177af" d="M13.095 3.825l-0.207 0.56c-0.043-0.027-0.086-0.053-0.13-0.078-0.047-0.027-0.094-0.053-0.142-0.078l0.19-0.569c0.051 0.027 0.102 0.055 0.151 0.083 0.047 0.027 0.093 0.055 0.138 0.083z"></path>
<path fill="#0177af" d="M6.327 3.663l0.189 0.569c-0.045 0.025-0.090 0.049-0.134 0.075-0.065 0.037-0.127 0.076-0.187 0.116l-0.21-0.558c0.064-0.042 0.13-0.082 0.199-0.122 0.047-0.027 0.095-0.054 0.143-0.080z"></path>
<path fill="#0177af" d="M14.296 9.191c-0.088 0.13-0.175 0.26-0.263 0.39-0.231 0.344-0.585 0.665-1.062 0.942-1.861 1.081-4.899 1.081-6.772 0-0.492-0.284-0.855-0.615-1.090-0.968-0.087-0.13-0.174-0.261-0.261-0.391 0.249 0.374 0.633 0.724 1.154 1.025 1.983 1.144 5.198 1.145 7.168 0 0.505-0.294 0.88-0.634 1.125-0.998z"></path>
<path fill="#0177af" d="M13.65 9.867l-0.227 0.352c-0.136 0.106-0.287 0.208-0.453 0.304-0.47 0.273-1.016 0.477-1.599 0.613l0.106-0.298c0.617-0.143 1.195-0.36 1.693-0.649 0.176-0.102 0.335-0.21 0.479-0.322z"></path>
<path fill="#0177af" d="M11.478 10.838l-0.106 0.298c-1.723 0.4-3.773 0.195-5.173-0.613-0.492-0.284-0.855-0.615-1.090-0.967l-0.261-0.391c0.249 0.374 0.633 0.724 1.154 1.024 1.482 0.856 3.651 1.071 5.475 0.649z"></path>
<path fill="#0177af" d="M14.487 9.235c-0.087 0.13-0.175 0.26-0.262 0.39-0.241 0.358-0.611 0.694-1.108 0.982-1.94 1.128-5.109 1.128-7.062 0-0.513-0.296-0.892-0.641-1.136-1.009-0.087-0.13-0.174-0.261-0.261-0.391 0.258 0.389 0.659 0.753 1.2 1.066 2.064 1.191 5.409 1.191 7.459 0 0.526-0.305 0.916-0.66 1.17-1.038z"></path>
<path fill="#0177af" d="M13.815 9.938l-0.227 0.353c-0.142 0.111-0.299 0.217-0.472 0.317-0.491 0.285-1.060 0.498-1.668 0.64l0.106-0.299c0.642-0.149 1.243-0.374 1.762-0.675 0.182-0.106 0.349-0.218 0.499-0.335z"></path>
<path fill="#0177af" d="M11.554 10.948l-0.106 0.299c-1.798 0.417-3.935 0.203-5.394-0.639-0.513-0.296-0.892-0.641-1.136-1.009l-0.261-0.391c0.259 0.389 0.659 0.753 1.201 1.066 1.542 0.89 3.799 1.115 5.697 0.675z"></path>
<path fill="#0177af" d="M14.647 6.168c-0.002 0.653-0.004 1.306-0.005 1.959-0.002 0.747-0.492 1.493-1.471 2.062-1.97 1.144-5.185 1.144-7.168-0-0.998-0.577-1.497-1.334-1.495-2.091 0.002-0.653 0.004-1.306 0.005-1.959-0.002 0.756 0.497 1.514 1.495 2.090 1.983 1.145 5.198 1.145 7.169 0 0.979-0.569 1.469-1.315 1.471-2.062z"></path>
<path fill="#0177af" d="M13.238 8.193l-0.006 1.96c-0.020 0.012-0.041 0.025-0.061 0.037-0.337 0.196-0.71 0.358-1.108 0.486l0.006-1.959c0.397-0.129 0.77-0.291 1.107-0.487 0.021-0.012 0.042-0.024 0.062-0.037z"></path>
<path fill="#0177af" d="M6.737 8.579l-0.005 1.96c-0.257-0.102-0.501-0.218-0.729-0.349-0.998-0.576-1.497-1.334-1.495-2.091l0.006-1.959c-0.002 0.756 0.496 1.514 1.494 2.090 0.228 0.132 0.472 0.248 0.729 0.349z"></path>
<path fill="#0177af" d="M14.046 4.71l0.261 0.391c0.698 1.049 0.322 2.284-1.131 3.128-1.97 1.145-5.185 1.145-7.169-0-1.475-0.852-1.859-2.099-1.148-3.155 0.088-0.13 0.175-0.26 0.262-0.39-0.671 0.997-0.309 2.176 1.085 2.98 1.873 1.081 4.911 1.082 6.772 0 1.372-0.798 1.727-1.965 1.067-2.955z"></path>
<path fill="#0177af" d="M13.178 7.543l0.209 0.557c-0.067 0.044-0.138 0.087-0.21 0.13-0.050 0.029-0.1 0.057-0.151 0.085l-0.189-0.569c0.048-0.026 0.096-0.052 0.143-0.080 0.069-0.040 0.135-0.081 0.198-0.122z"></path>
<path fill="#0177af" d="M6.358 7.748l-0.19 0.569c-0.054-0.029-0.108-0.058-0.16-0.089-0.050-0.028-0.098-0.058-0.146-0.087l0.207-0.559c0.045 0.028 0.090 0.056 0.138 0.082 0.049 0.029 0.099 0.056 0.15 0.084z"></path>
<path fill="#0177af" d="M14.238 4.667c0.087 0.131 0.174 0.261 0.261 0.391 0.727 1.092 0.335 2.377-1.177 3.255-2.050 1.191-5.395 1.191-7.459 0-1.535-0.886-1.934-2.185-1.195-3.283 0.088-0.13 0.175-0.26 0.263-0.39-0.701 1.040-0.322 2.27 1.131 3.109 1.953 1.127 5.122 1.127 7.062 0 1.431-0.832 1.802-2.048 1.114-3.083z"></path>
<path fill="#0177af" d="M13.331 7.621l0.209 0.557c-0.070 0.046-0.143 0.091-0.219 0.135-0.052 0.030-0.104 0.059-0.158 0.087l-0.189-0.568c0.050-0.027 0.1-0.055 0.149-0.083 0.072-0.042 0.141-0.084 0.207-0.128z"></path>
<path fill="#0177af" d="M6.219 7.836l-0.19 0.569c-0.056-0.030-0.112-0.060-0.166-0.092-0.052-0.030-0.103-0.060-0.152-0.091l0.207-0.559c0.047 0.029 0.095 0.058 0.143 0.086 0.052 0.030 0.104 0.059 0.157 0.087z"></path>
<path fill="#0177af" d="M6.207 7.665c1.873 1.081 4.911 1.082 6.772 0s1.851-2.842-0.022-3.923-4.911-1.081-6.772 0c-1.861 1.081-1.851 2.841 0.022 3.922zM13.102 3.658c1.953 1.128 1.964 2.963 0.023 4.091s-5.109 1.128-7.062 0c-1.953-1.127-1.964-2.963-0.023-4.091s5.109-1.128 7.063 0z"></path>
<path fill="#0177af" d="M14.853 6.168c-0.002 0.653-0.004 1.306-0.005 1.96-0.002 0.777-0.512 1.553-1.531 2.146-2.050 1.191-5.395 1.191-7.459 0-1.038-0.6-1.557-1.389-1.555-2.176 0.002-0.653 0.004-1.307 0.005-1.96-0.002 0.787 0.516 1.576 1.555 2.176 2.064 1.191 5.409 1.191 7.459 0 1.019-0.592 1.528-1.368 1.531-2.146z"></path>
<path fill="#0177af" d="M13.386 8.275l-0.006 1.96c-0.021 0.013-0.043 0.026-0.064 0.038-0.351 0.203-0.739 0.372-1.152 0.507l0.005-1.96c0.414-0.134 0.802-0.303 1.152-0.507 0.022-0.013 0.043-0.026 0.064-0.038z"></path>
<path fill="#0177af" d="M6.621 8.677l-0.006 1.96c-0.267-0.105-0.521-0.227-0.758-0.364-1.038-0.599-1.557-1.388-1.555-2.176l0.005-1.96c-0.002 0.787 0.516 1.576 1.555 2.176 0.237 0.137 0.491 0.258 0.758 0.364z"></path>
<path fill="#0177af" d="M13.778 4.364c0.087 0.131 0.174 0.261 0.261 0.391-0.235-0.353-0.598-0.684-1.090-0.967-1.873-1.082-4.911-1.082-6.772 0-0.477 0.277-0.831 0.598-1.062 0.942 0.087-0.13 0.175-0.26 0.263-0.39 0.217-0.322 0.55-0.625 0.999-0.886 1.751-1.018 4.612-1.018 6.375 0 0.463 0.267 0.804 0.578 1.026 0.91z"></path>
<path fill="#0177af" d="M13.778 4.364l0.261 0.391c-0.235-0.353-0.598-0.684-1.090-0.967-1.399-0.808-3.449-1.012-5.172-0.613l0.106-0.298c1.622-0.376 3.552-0.184 4.869 0.577 0.463 0.267 0.805 0.578 1.026 0.91z"></path>
<path fill="#0177af" d="M7.883 2.877l-0.107 0.299c-0.583 0.135-1.129 0.339-1.6 0.613-0.166 0.096-0.316 0.198-0.452 0.304l0.227-0.353c0.128-0.1 0.27-0.195 0.426-0.286 0.443-0.258 0.957-0.45 1.506-0.577z"></path>
<path fill="#0177af" d="M14.086 3.354c-0.002 0.653-0.004 1.307-0.005 1.96 0.002-0.673-0.442-1.348-1.329-1.86-1.763-1.018-4.623-1.018-6.375 0-0.87 0.506-1.306 1.169-1.308 1.833 0.002-0.653 0.004-1.307 0.006-1.96 0.002-0.664 0.437-1.328 1.307-1.833 1.751-1.018 4.612-1.018 6.375 0 0.887 0.512 1.33 1.186 1.329 1.859z"></path>
<path fill="#0177af" d="M14.086 3.354l-0.005 1.96c0.002-0.673-0.442-1.348-1.329-1.86-0.202-0.117-0.42-0.22-0.648-0.31l0.005-1.96c0.228 0.090 0.446 0.194 0.648 0.311 0.887 0.512 1.33 1.186 1.329 1.859z"></path>
<path fill="#0177af" d="M7.367 1.061l-0.006 1.96c-0.353 0.114-0.685 0.258-0.985 0.433-0.018 0.011-0.036 0.021-0.055 0.032l0.006-1.959c0.018-0.011 0.036-0.022 0.054-0.033 0.3-0.174 0.632-0.318 0.985-0.433z"></path>
<path fill="#0177af" d="M14.041 3.911c-0.088 0.13-0.175 0.26-0.263 0.39 0.632-0.939 0.291-2.050-1.020-2.807-1.763-1.018-4.624-1.018-6.375 0-1.292 0.751-1.626 1.849-1.005 2.782-0.087-0.13-0.174-0.261-0.261-0.391-0.66-0.991-0.305-2.157 1.067-2.954 1.862-1.082 4.899-1.082 6.772 0 1.393 0.804 1.756 1.984 1.084 2.98z"></path>
<path fill="#0177af" d="M13.095 1.013l-0.207 0.559c-0.043-0.026-0.086-0.052-0.13-0.078-0.047-0.027-0.094-0.053-0.142-0.079l0.19-0.569c0.051 0.027 0.102 0.055 0.151 0.084 0.047 0.027 0.093 0.055 0.138 0.083z"></path>
<path fill="#0177af" d="M6.327 0.85l0.189 0.569c-0.045 0.024-0.090 0.049-0.134 0.075-0.065 0.038-0.127 0.076-0.187 0.116l-0.21-0.557c0.064-0.042 0.13-0.082 0.199-0.123 0.047-0.027 0.095-0.054 0.143-0.080z"></path>
<path fill="#0177af" d="M14.296 6.379c-0.088 0.13-0.175 0.26-0.263 0.39-0.231 0.344-0.585 0.665-1.062 0.942-1.861 1.082-4.899 1.081-6.772 0-0.492-0.284-0.855-0.615-1.090-0.967-0.087-0.131-0.174-0.261-0.261-0.391 0.249 0.374 0.633 0.724 1.154 1.024 1.983 1.144 5.198 1.145 7.168 0 0.505-0.294 0.88-0.634 1.125-0.998z"></path>
<path fill="#0177af" d="M13.65 7.055l-0.227 0.352c-0.136 0.106-0.287 0.208-0.453 0.304-0.47 0.273-1.016 0.477-1.599 0.613l0.106-0.298c0.617-0.143 1.195-0.36 1.693-0.649 0.176-0.102 0.335-0.21 0.479-0.322z"></path>
<path fill="#0177af" d="M11.478 8.025l-0.106 0.298c-1.723 0.4-3.773 0.195-5.173-0.613-0.492-0.284-0.855-0.615-1.090-0.967l-0.261-0.391c0.249 0.374 0.633 0.723 1.154 1.024 1.482 0.856 3.651 1.071 5.475 0.649z"></path>
<path fill="#0177af" d="M14.487 6.423c-0.087 0.13-0.175 0.26-0.262 0.39-0.241 0.358-0.611 0.694-1.108 0.983-1.94 1.127-5.109 1.128-7.062 0-0.513-0.296-0.892-0.641-1.136-1.009-0.087-0.13-0.174-0.261-0.261-0.391 0.258 0.389 0.659 0.753 1.2 1.066 2.064 1.191 5.409 1.191 7.459 0 0.526-0.305 0.916-0.66 1.17-1.038z"></path>
<path fill="#0177af" d="M13.815 7.125l-0.227 0.353c-0.142 0.111-0.299 0.217-0.472 0.317-0.491 0.285-1.060 0.498-1.668 0.639l0.106-0.299c0.642-0.149 1.243-0.374 1.762-0.675 0.182-0.106 0.349-0.218 0.499-0.335z"></path>
<path fill="#0177af" d="M11.554 8.135l-0.106 0.299c-1.798 0.417-3.935 0.203-5.394-0.639-0.513-0.296-0.892-0.641-1.136-1.009l-0.261-0.391c0.259 0.388 0.659 0.753 1.201 1.066 1.542 0.89 3.799 1.115 5.697 0.675z"></path>
<path fill="#0177af" d="M14.647 3.355c-0.002 0.653-0.004 1.306-0.005 1.959-0.002 0.747-0.492 1.493-1.471 2.062-1.97 1.144-5.185 1.144-7.168-0-0.998-0.577-1.497-1.334-1.495-2.091 0.002-0.653 0.004-1.306 0.005-1.959-0.002 0.757 0.497 1.514 1.495 2.091 1.983 1.144 5.198 1.144 7.169 0 0.979-0.569 1.469-1.315 1.471-2.062z"></path>
<path fill="#0177af" d="M13.238 5.381l-0.006 1.959c-0.020 0.012-0.041 0.025-0.061 0.037-0.337 0.196-0.71 0.358-1.108 0.487l0.006-1.96c0.397-0.129 0.77-0.291 1.107-0.487 0.021-0.012 0.042-0.024 0.062-0.036z"></path>
<path fill="#0177af" d="M6.737 5.766l-0.005 1.96c-0.257-0.102-0.501-0.218-0.729-0.349-0.998-0.576-1.497-1.334-1.495-2.091l0.006-1.959c-0.002 0.757 0.496 1.514 1.494 2.091 0.228 0.131 0.472 0.247 0.729 0.349z"></path>
<path fill="#0177af" d="M14.046 1.897c0.087 0.131 0.174 0.261 0.261 0.391 0.698 1.049 0.322 2.283-1.131 3.128-1.97 1.145-5.185 1.145-7.169 0-1.475-0.852-1.859-2.1-1.148-3.155 0.088-0.13 0.175-0.26 0.262-0.39-0.671 0.996-0.309 2.176 1.085 2.98 1.873 1.081 4.911 1.082 6.772 0 1.372-0.798 1.727-1.964 1.067-2.955z"></path>
<path fill="#0177af" d="M13.178 4.73l0.209 0.557c-0.067 0.044-0.138 0.087-0.21 0.13-0.050 0.029-0.1 0.057-0.151 0.085l-0.189-0.569c0.048-0.026 0.096-0.052 0.143-0.080 0.069-0.039 0.135-0.081 0.198-0.122z"></path>
<path fill="#0177af" d="M6.358 4.936l-0.19 0.569c-0.054-0.029-0.108-0.058-0.16-0.088-0.050-0.029-0.098-0.058-0.146-0.088l0.207-0.559c0.045 0.028 0.090 0.056 0.138 0.082 0.049 0.029 0.099 0.056 0.15 0.084z"></path>
<path fill="#0177af" d="M14.238 1.854c0.087 0.13 0.174 0.261 0.261 0.391 0.727 1.092 0.335 2.376-1.177 3.255-2.050 1.191-5.395 1.191-7.459 0-1.535-0.886-1.934-2.185-1.195-3.283 0.088-0.13 0.175-0.26 0.263-0.39-0.701 1.039-0.322 2.27 1.131 3.109 1.953 1.128 5.122 1.128 7.062 0 1.431-0.832 1.802-2.048 1.114-3.082z"></path>
<path fill="#0177af" d="M14.238 1.854l0.261 0.391c0.020 0.030 0.039 0.060 0.057 0.090l-0.263-0.396c-0.017-0.029-0.036-0.057-0.055-0.086z"></path>
<path fill="#0177af" d="M14.292 1.94l0.263 0.396c0.040 0.066 0.076 0.133 0.108 0.2l-0.269-0.407c-0.030-0.063-0.064-0.126-0.102-0.189z"></path>
<path fill="#0177af" d="M14.394 2.129l0.269 0.407c0.031 0.065 0.058 0.131 0.082 0.197l-0.274-0.417c-0.022-0.063-0.048-0.125-0.077-0.187z"></path>
<path fill="#0177af" d="M14.471 2.315l0.274 0.417c0.023 0.065 0.042 0.13 0.058 0.195l-0.277-0.427c-0.015-0.062-0.033-0.124-0.055-0.185z"></path>
<path fill="#0177af" d="M14.526 2.501l0.277 0.427c0.015 0.065 0.027 0.13 0.035 0.195l-0.278-0.438c-0.008-0.062-0.019-0.123-0.034-0.185z"></path>
<path fill="#0177af" d="M14.56 2.685l0.279 0.438c0.008 0.065 0.013 0.13 0.014 0.195l-0.279-0.448c-0.001-0.062-0.005-0.124-0.013-0.185z"></path>
<path fill="#0177af" d="M14.573 2.87l0.279 0.448c0.001 0.065-0.001 0.131-0.008 0.197l-0.279-0.458c0.006-0.062 0.008-0.125 0.007-0.187z"></path>
<path fill="#0177af" d="M14.566 3.057l0.279 0.459c-0.006 0.067-0.016 0.133-0.030 0.199l-0.277-0.469c0.013-0.063 0.022-0.126 0.028-0.189z"></path>
<path fill="#0177af" d="M14.538 3.246l0.277 0.469c-0.014 0.068-0.032 0.136-0.054 0.203l-0.275-0.48c0.021-0.064 0.038-0.128 0.051-0.193z"></path>
<path fill="#0177af" d="M14.487 3.438l0.275 0.48c-0.023 0.070-0.050 0.14-0.081 0.209l-0.27-0.491c0.030-0.065 0.055-0.131 0.077-0.198z"></path>
<path fill="#0177af" d="M14.41 3.636l0.27 0.491c-0.033 0.073-0.071 0.146-0.113 0.218l-0.264-0.503c0.041-0.068 0.076-0.136 0.108-0.206z"></path>
<path fill="#0177af" d="M14.303 3.842l0.264 0.503c-0.046 0.077-0.098 0.155-0.155 0.23l-0.256-0.515c0.054-0.072 0.103-0.144 0.146-0.218z"></path>
<path fill="#0177af" d="M14.157 4.060l0.256 0.515c-0.064 0.084-0.134 0.167-0.211 0.249l-0.245-0.529c0.073-0.077 0.14-0.155 0.2-0.235z"></path>
<path fill="#0177af" d="M13.956 4.295l0.245 0.529c-0.088 0.092-0.185 0.183-0.291 0.27l-0.229-0.542c0.1-0.083 0.192-0.168 0.275-0.256z"></path>
<path fill="#0177af" d="M13.681 4.551l0.229 0.542c-0.113 0.094-0.236 0.185-0.37 0.272l-0.209-0.557c0.126-0.083 0.243-0.169 0.35-0.258z"></path>
<path fill="#0177af" d="M13.331 4.809l0.209 0.557c-0.070 0.046-0.143 0.091-0.219 0.135-0.052 0.030-0.104 0.060-0.158 0.088l-0.189-0.569c0.050-0.027 0.1-0.055 0.149-0.083 0.072-0.042 0.141-0.084 0.207-0.128z"></path>
<path fill="#0177af" d="M12.975 5.020l0.189 0.569c-0.109 0.058-0.222 0.113-0.337 0.166l-0.171-0.578c0.109-0.050 0.216-0.102 0.319-0.157z"></path>
<path fill="#0177af" d="M12.656 5.177l0.171 0.578c-0.104 0.047-0.211 0.091-0.319 0.133l-0.154-0.585c0.103-0.039 0.204-0.081 0.302-0.126z"></path>
<path fill="#0177af" d="M12.354 5.303l0.154 0.585c-0.116 0.044-0.234 0.086-0.354 0.125l-0.136-0.591c0.114-0.037 0.226-0.076 0.336-0.119z"></path>
<path fill="#0177af" d="M12.018 5.421l0.135 0.591c-0.354 0.114-0.726 0.202-1.109 0.265l-0.076-0.606c0.362-0.060 0.714-0.143 1.049-0.251z"></path>
<path fill="#0177af" d="M10.968 5.672l0.076 0.606c-0.1 0.017-0.2 0.031-0.301 0.044l-0.061-0.608c0.096-0.013 0.192-0.026 0.286-0.042z"></path>
<path fill="#0177af" d="M10.682 5.714l0.060 0.608c-0.073 0.010-0.147 0.018-0.222 0.026l-0.049-0.609c0.070-0.007 0.141-0.015 0.21-0.024z"></path>
<path fill="#0177af" d="M10.472 5.738l0.049 0.609c-0.069 0.008-0.138 0.014-0.207 0.019l-0.038-0.61c0.065-0.005 0.131-0.011 0.196-0.018z"></path>
<path fill="#0177af" d="M10.277 5.756l0.038 0.61c-0.063 0.005-0.126 0.010-0.189 0.013l-0.028-0.611c0.060-0.003 0.12-0.007 0.18-0.012z"></path>
<path fill="#0177af" d="M10.097 5.768l0.028 0.611c-0.063 0.004-0.126 0.007-0.189 0.009l-0.017-0.611c0.060-0.002 0.12-0.005 0.179-0.009z"></path>
<path fill="#0177af" d="M9.918 5.776l0.017 0.611c-0.062 0.003-0.125 0.004-0.188 0.005l-0.008-0.612c0.059-0.001 0.119-0.003 0.178-0.005z"></path>
<path fill="#0177af" d="M9.74 5.781l0.008 0.612c-0.064 0.001-0.127 0.001-0.191 0.001l0.003-0.612c0.060 0 0.12 0 0.181-0.001z"></path>
<path fill="#0177af" d="M9.56 5.782l-0.003 0.612c-0.068-0-0.135-0.002-0.202-0.004l0.013-0.611c0.064 0.002 0.128 0.003 0.192 0.003z"></path>
<path fill="#0177af" d="M9.368 5.78l-0.013 0.611c-0.069-0.002-0.138-0.004-0.208-0.008l0.025-0.611c0.065 0.003 0.131 0.006 0.197 0.008z"></path>
<path fill="#0177af" d="M9.171 5.772l-0.024 0.611c-0.077-0.004-0.153-0.008-0.229-0.014l0.037-0.611c0.072 0.005 0.144 0.010 0.216 0.013z"></path>
<path fill="#0177af" d="M8.954 5.759l-0.037 0.611c-0.081-0.006-0.161-0.013-0.241-0.021l0.049-0.609c0.076 0.008 0.152 0.014 0.229 0.020z"></path>
<path fill="#0177af" d="M8.726 5.738l-0.049 0.609c-0.086-0.009-0.172-0.019-0.258-0.030l0.063-0.608c0.081 0.010 0.162 0.020 0.244 0.028z"></path>
<path fill="#0177af" d="M8.482 5.71l-0.063 0.608c-0.094-0.013-0.187-0.026-0.28-0.042l0.078-0.606c0.088 0.014 0.176 0.028 0.265 0.039z"></path>
<path fill="#0177af" d="M8.216 5.671l-0.077 0.606c-0.097-0.016-0.193-0.034-0.289-0.053l0.093-0.602c0.090 0.018 0.182 0.035 0.274 0.050z"></path>
<path fill="#0177af" d="M7.943 5.62l-0.093 0.603c-0.1-0.020-0.198-0.042-0.297-0.066l0.109-0.599c0.093 0.022 0.186 0.043 0.281 0.062z"></path>
<path fill="#0177af" d="M7.662 5.558l-0.109 0.599c-0.101-0.025-0.202-0.051-0.301-0.080l0.125-0.595c0.094 0.027 0.189 0.052 0.285 0.075z"></path>
<path fill="#0177af" d="M7.377 5.483l-0.125 0.595c-0.102-0.029-0.203-0.060-0.303-0.094l0.141-0.59c0.094 0.032 0.19 0.061 0.287 0.089z"></path>
<path fill="#0177af" d="M7.090 5.394l-0.141 0.59c-0.103-0.035-0.204-0.071-0.304-0.11l0.157-0.584c0.094 0.037 0.19 0.072 0.288 0.104z"></path>
<path fill="#0177af" d="M6.803 5.29l-0.157 0.585c-0.104-0.041-0.206-0.084-0.306-0.129l0.174-0.577c0.094 0.043 0.191 0.083 0.289 0.121z"></path>
<path fill="#0177af" d="M6.513 5.168l-0.173 0.577c-0.106-0.048-0.21-0.099-0.311-0.153l0.19-0.569c0.095 0.051 0.194 0.099 0.294 0.144z"></path>
<path fill="#0177af" d="M6.219 5.024l-0.19 0.569c-0.056-0.030-0.112-0.060-0.166-0.092-0.052-0.030-0.103-0.060-0.152-0.091l0.207-0.559c0.047 0.030 0.095 0.058 0.143 0.086 0.052 0.030 0.104 0.059 0.157 0.087z"></path>
<path fill="#0177af" d="M5.919 4.85l-0.207 0.559c-0.114-0.071-0.221-0.145-0.321-0.221l0.224-0.548c0.095 0.072 0.196 0.142 0.304 0.209z"></path>
<path fill="#0177af" d="M5.615 4.641l-0.224 0.548c-0.119-0.090-0.228-0.184-0.327-0.279l0.241-0.533c0.094 0.090 0.197 0.179 0.31 0.264z"></path>
<path fill="#0177af" d="M5.305 4.378l-0.241 0.533c-0.135-0.13-0.252-0.264-0.351-0.402l0.26-0.511c0.094 0.13 0.204 0.258 0.332 0.381z"></path>
<path fill="#0177af" d="M4.973 3.997l-0.26 0.511c-0.524-0.731-0.539-1.556-0.044-2.29l0.263-0.39c-0.469 0.696-0.455 1.477 0.042 2.169z"></path>
<path fill="#0177af" d="M6.207 4.852c1.873 1.081 4.911 1.082 6.772 0s1.851-2.841-0.022-3.922c-1.873-1.082-4.911-1.082-6.772 0s-1.851 2.841 0.022 3.922zM13.102 0.846c1.953 1.128 1.964 2.963 0.023 4.091s-5.109 1.128-7.062 0c-1.953-1.128-1.964-2.963-0.023-4.090s5.109-1.128 7.063-0z"></path>
<path fill="#0177af" d="M12.957 0.93c1.873 1.081 1.884 2.841 0.022 3.922s-4.899 1.081-6.772-0c-1.874-1.081-1.884-2.841-0.023-3.922s4.899-1.082 6.772 0z"></path>
<path fill="#0177af" d="M14.853 3.356c-0.002 0.653-0.004 1.307-0.005 1.96-0.002 0.777-0.512 1.553-1.531 2.146-2.050 1.191-5.395 1.191-7.459 0-1.038-0.6-1.557-1.389-1.555-2.176 0.002-0.653 0.004-1.306 0.005-1.96-0.002 0.787 0.516 1.576 1.555 2.176 2.064 1.191 5.409 1.191 7.459 0 1.019-0.592 1.528-1.368 1.531-2.146z"></path>
<path fill="#0177af" d="M14.853 3.356l-0.005 1.96c0 0.015-0 0.031-0.001 0.046l0.006-1.959c0-0.016 0-0.031 0-0.047z"></path>
<path fill="#0177af" d="M14.852 3.402l-0.006 1.96c-0.003 0.101-0.014 0.202-0.034 0.303l0.006-1.959c0.020-0.101 0.032-0.202 0.034-0.303z"></path>
<path fill="#0177af" d="M14.817 3.705l-0.006 1.959c-0.020 0.1-0.048 0.199-0.085 0.298l0.005-1.96c0.037-0.099 0.065-0.198 0.086-0.297z"></path>
<path fill="#0177af" d="M14.732 4.003l-0.005 1.96c-0.038 0.101-0.085 0.201-0.141 0.3l0.006-1.959c0.056-0.099 0.103-0.199 0.141-0.301z"></path>
<path fill="#0177af" d="M14.591 4.303l-0.006 1.959c-0.060 0.107-0.131 0.212-0.212 0.315l0.006-1.959c0.081-0.103 0.152-0.209 0.212-0.315z"></path>
<path fill="#0177af" d="M14.379 4.619l-0.006 1.959c-0.095 0.121-0.203 0.238-0.327 0.352l0.006-1.96c0.123-0.114 0.232-0.231 0.327-0.351z"></path>
<path fill="#0177af" d="M14.052 4.97l-0.006 1.96c-0.189 0.174-0.41 0.34-0.666 0.493l0.006-1.96c0.255-0.154 0.477-0.319 0.666-0.493z"></path>
<path fill="#0177af" d="M13.386 5.463l-0.006 1.96c-0.021 0.013-0.043 0.026-0.064 0.038-0.351 0.203-0.739 0.373-1.152 0.507l0.005-1.96c0.414-0.134 0.802-0.303 1.152-0.507 0.022-0.013 0.043-0.026 0.064-0.038z"></path>
<path fill="#0177af" d="M12.169 6.007l-0.005 1.96c-0.32 0.103-0.655 0.187-0.999 0.249l0.005-1.959c0.344-0.062 0.679-0.146 0.999-0.249z"></path>
<path fill="#0177af" d="M11.171 6.256l-0.005 1.959c-0.221 0.040-0.447 0.071-0.674 0.094l0.005-1.96c0.227-0.023 0.452-0.054 0.674-0.094z"></path>
<path fill="#0177af" d="M10.497 6.35l-0.005 1.96c-0.194 0.019-0.39 0.032-0.586 0.039l0.005-1.96c0.196-0.007 0.392-0.020 0.586-0.039z"></path>
<path fill="#0177af" d="M9.911 6.389l-0.006 1.96c-0.18 0.006-0.361 0.007-0.542 0.003l0.006-1.96c0.181 0.005 0.361 0.004 0.542-0.003z"></path>
<path fill="#0177af" d="M9.369 6.391l-0.006 1.96c-0.174-0.004-0.348-0.013-0.52-0.028l0.005-1.959c0.173 0.014 0.347 0.023 0.521 0.028z"></path>
<path fill="#0177af" d="M8.849 6.363l-0.006 1.96c-0.172-0.014-0.344-0.033-0.514-0.057l0.006-1.96c0.17 0.024 0.341 0.043 0.514 0.057z"></path>
<path fill="#0177af" d="M8.335 6.306l-0.006 1.96c-0.176-0.025-0.351-0.056-0.523-0.091l0.005-1.96c0.172 0.036 0.347 0.066 0.524 0.091z"></path>
<path fill="#0177af" d="M7.811 6.215l-0.005 1.96c-0.187-0.039-0.37-0.084-0.551-0.135l0.006-1.959c0.18 0.051 0.363 0.096 0.55 0.135z"></path>
<path fill="#0177af" d="M7.261 6.080l-0.006 1.959c-0.219-0.063-0.433-0.134-0.64-0.215l0.006-1.96c0.206 0.081 0.42 0.153 0.64 0.216z"></path>
<path fill="#0177af" d="M6.621 5.864l-0.006 1.96c-0.267-0.105-0.521-0.227-0.758-0.364-1.038-0.599-1.557-1.388-1.555-2.176l0.005-1.96c-0.002 0.787 0.516 1.576 1.555 2.176 0.237 0.137 0.491 0.258 0.758 0.364z"></path>
</svg>
